<?xml version="1.0" standalone="no"?>
<!DOCTYPE svg PUBLIC "-//W3C//DTD SVG 20010904//EN"
 "http://www.w3.org/TR/2001/REC-SVG-20010904/DTD/svg10.dtd">
<svg version="1.0" xmlns="http://www.w3.org/2000/svg"
 width="700.000000pt" height="700.000000pt" viewBox="0 0 700.000000 700.000000"
 preserveAspectRatio="xMidYMid meet">
<metadata>
Created by potrace 1.11, written by Peter Selinger 2001-2013
</metadata>
<g transform="translate(0.000000,700.000000) scale(0.100000,-0.100000)"
fill="#000000" stroke="none">
<path d="M3279 6996 c-2 -2 -43 -7 -90 -10 -47 -4 -94 -8 -105 -10 -10 -2 -48
-7 -84 -12 -36 -4 -67 -8 -70 -9 -3 -1 -25 -5 -50 -9 -25 -4 -101 -21 -170
-38 -69 -16 -132 -31 -140 -33 -44 -9 -288 -93 -379 -130 -255 -103 -524 -251
-740 -409 -69 -50 -129 -94 -135 -98 -9 -6 15 -36 154 -198 78 -90 390 -453
413 -480 12 -14 36 -42 53 -62 l31 -36 89 64 c169 120 348 216 549 295 33 13
62 24 65 24 3 1 34 11 70 23 71 23 239 66 310 78 25 4 47 8 50 9 3 1 32 5 65
9 33 4 74 10 90 13 47 9 414 10 470 2 27 -4 75 -10 105 -14 155 -17 424 -87
600 -157 159 -63 350 -172 586 -333 16 -11 30 3 139 130 100 117 498 581 517
602 l20 21 -59 46 c-95 76 -217 158 -359 242 -112 68 -405 214 -427 214 -4 0
-26 8 -50 19 -91 40 -127 52 -297 104 -134 41 -320 84 -435 101 -23 4 -52 8
-65 11 -14 3 -52 8 -85 11 -33 3 -76 8 -95 11 -39 5 -536 13 -541 9z"/>
<path d="M1040 5987 c-500 -491 -846 -1140 -979 -1837 -11 -58 -22 -125 -25
-150 -4 -25 -8 -63 -11 -85 -21 -153 -27 -566 -11 -720 4 -44 8 -87 8 -95 0
-8 4 -36 9 -61 4 -25 10 -67 14 -93 3 -26 9 -66 15 -89 5 -23 12 -58 15 -77
15 -87 110 -424 125 -445 4 -5 13 -28 20 -50 6 -22 18 -53 25 -70 7 -16 25
-59 40 -95 36 -85 136 -286 188 -375 99 -172 291 -438 402 -560 388 -425 772
-698 1290 -920 102 -44 402 -142 485 -159 14 -3 53 -12 87 -20 34 -9 77 -18
95 -21 18 -3 44 -7 58 -10 108 -20 198 -32 315 -42 167 -15 596 -8 716 12 13
2 58 9 99 15 41 6 87 14 103 16 182 29 449 106 672 194 869 345 1584 1050
1938 1910 29 72 131 355 127 355 -1 0 1 7 4 15 10 31 75 317 81 355 3 23 7 51
10 64 6 32 14 97 29 236 12 112 14 564 2 640 -3 17 -8 57 -11 90 -14 130 -66
395 -105 530 -105 368 -262 704 -477 1021 -70 104 -84 123 -191 257 -77 94
-140 164 -247 269 l-80 79 -25 -28 c-22 -25 -94 -109 -153 -177 -10 -12 -28
-32 -40 -46 -12 -14 -107 -124 -211 -245 -103 -121 -199 -232 -211 -247 l-24
-26 42 -40 c235 -222 461 -576 585 -917 139 -381 182 -820 120 -1215 -5 -36
-12 -78 -15 -95 -8 -57 -54 -230 -82 -315 -56 -170 -173 -425 -191 -418 -5 2
-107 98 -226 213 -119 116 -249 241 -288 279 -39 37 -169 163 -290 280 -120
116 -246 237 -280 269 -33 32 -105 102 -159 154 -111 108 -86 65 -309 547 -65
142 -134 291 -152 330 -19 39 -48 103 -66 141 -196 423 -249 535 -252 535 -2
0 -3 -498 -2 -1106 l0 -1105 81 -77 c45 -42 188 -181 319 -308 132 -128 273
-264 314 -304 41 -40 185 -179 320 -310 135 -131 262 -254 283 -273 20 -20 37
-39 37 -44 -1 -21 -234 -171 -380 -244 -246 -122 -495 -199 -790 -243 -168
-25 -512 -26 -660 -1 -14 2 -43 6 -65 9 -320 46 -692 193 -989 391 l-119 79
144 139 c147 142 212 205 633 612 346 334 352 339 479 462 l116 113 1 902 c1
497 1 995 0 1108 l-1 205 -31 -65 c-26 -55 -93 -198 -263 -565 -16 -33 -52
-111 -82 -174 -29 -62 -53 -115 -53 -117 0 -2 -19 -43 -41 -91 -23 -49 -53
-113 -67 -143 -13 -30 -53 -113 -87 -185 l-62 -130 -188 -180 c-103 -99 -212
-204 -244 -234 -31 -30 -168 -163 -305 -295 -137 -133 -279 -270 -315 -304
-36 -35 -117 -113 -178 -173 -62 -60 -116 -109 -121 -109 -9 0 -78 136 -125
244 -61 143 -132 382 -151 506 -3 19 -8 53 -11 75 -3 22 -8 46 -10 53 -9 25
-19 220 -19 347 1 166 9 266 35 415 83 481 311 932 651 1286 43 44 78 84 78
89 0 4 -26 37 -57 74 -32 36 -68 77 -79 91 -37 43 -115 134 -143 165 -14 17
-51 59 -81 95 -30 36 -57 67 -60 70 -3 3 -57 65 -119 138 -63 72 -115 132
-115 132 -1 0 -40 -37 -86 -83z"/>
</g>
</svg>
